<mxfile host="app.diagrams.net" modified="2023-11-01T12:00:00.000Z" agent="Mozilla/5.0" etag="abc123" version="21.6.6">
  <diagram name="Страница библиотеки - Мобильная версия" id="library-page-mobile">
    <mxGraphModel dx="375" dy="667" grid="1" gridSize="10" guides="1" tooltips="1" connect="1" arrows="1" fold="1" page="1" pageScale="1" pageWidth="375" pageHeight="667" math="0" shadow="0">
      <root>
        <mxCell id="0" />
        <mxCell id="1" parent="0" />
        <!-- Верхняя панель навигации -->
        <mxCell id="header" value="" style="rounded=0;whiteSpace=wrap;html=1;fillColor=#f5f5f5;strokeColor=#666666;fontColor=#333333;" vertex="1" parent="1">
          <mxGeometry x="0" y="0" width="375" height="50" as="geometry" />
        </mxCell>
        <mxCell id="page_title" value="Библиотека" style="text;html=1;strokeColor=none;fillColor=none;align=center;verticalAlign=middle;whiteSpace=wrap;rounded=0;fontStyle=1;fontSize=18;" vertex="1" parent="1">
          <mxGeometry x="107.5" y="10" width="160" height="30" as="geometry" />
        </mxCell>
        <!-- Статистика библиотеки -->
        <mxCell id="stats_container" value="" style="rounded=0;whiteSpace=wrap;html=1;fillColor=#f9f9f9;strokeColor=#cccccc;" vertex="1" parent="1">
          <mxGeometry x="0" y="50" width="375" height="60" as="geometry" />
        </mxCell>
        <mxCell id="stats_games" value="🎮 12 игр" style="text;html=1;strokeColor=none;fillColor=none;align=center;verticalAlign=middle;whiteSpace=wrap;rounded=0;fontSize=12;" vertex="1" parent="1">
          <mxGeometry x="20" y="65" width="80" height="30" as="geometry" />
        </mxCell>
        <mxCell id="stats_movies" value="🎬 45 фильмов" style="text;html=1;strokeColor=none;fillColor=none;align=center;verticalAlign=middle;whiteSpace=wrap;rounded=0;fontSize=12;" vertex="1" parent="1">
          <mxGeometry x="110" y="65" width="80" height="30" as="geometry" />
        </mxCell>
        <mxCell id="stats_books" value="📚 23 книги" style="text;html=1;strokeColor=none;fillColor=none;align=center;verticalAlign=middle;whiteSpace=wrap;rounded=0;fontSize=12;" vertex="1" parent="1">
          <mxGeometry x="200" y="65" width="80" height="30" as="geometry" />
        </mxCell>
        <mxCell id="stats_other" value="📌 8 других" style="text;html=1;strokeColor=none;fillColor=none;align=center;verticalAlign=middle;whiteSpace=wrap;rounded=0;fontSize=12;" vertex="1" parent="1">
          <mxGeometry x="290" y="65" width="80" height="30" as="geometry" />
        </mxCell>
        <!-- Фильтры и сортировка -->
        <mxCell id="filters_container" value="" style="rounded=0;whiteSpace=wrap;html=1;fillColor=#ffffff;strokeColor=#f0f0f0;" vertex="1" parent="1">
          <mxGeometry x="0" y="110" width="375" height="60" as="geometry" />
        </mxCell>
        <mxCell id="filter_all" value="Все" style="rounded=1;whiteSpace=wrap;html=1;fillColor=#dae8fc;strokeColor=#6c8ebf;fontSize=12;" vertex="1" parent="1">
          <mxGeometry x="20" y="120" width="60" height="40" as="geometry" />
        </mxCell>
        <mxCell id="filter_games" value="Игры" style="rounded=1;whiteSpace=wrap;html=1;fillColor=#ffffff;strokeColor=#999999;fontSize=12;" vertex="1" parent="1">
          <mxGeometry x="90" y="120" width="60" height="40" as="geometry" />
        </mxCell>
        <mxCell id="filter_movies" value="Фильмы" style="rounded=1;whiteSpace=wrap;html=1;fillColor=#ffffff;strokeColor=#999999;fontSize=12;" vertex="1" parent="1">
          <mxGeometry x="160" y="120" width="60" height="40" as="geometry" />
        </mxCell>
        <mxCell id="filter_books" value="Книги" style="rounded=1;whiteSpace=wrap;html=1;fillColor=#ffffff;strokeColor=#999999;fontSize=12;" vertex="1" parent="1">
          <mxGeometry x="230" y="120" width="60" height="40" as="geometry" />
        </mxCell>
        <mxCell id="sort_button" value="⇅ Сортировка" style="rounded=1;whiteSpace=wrap;html=1;fillColor=#ffffff;strokeColor=#999999;fontSize=12;" vertex="1" parent="1">
          <mxGeometry x="300" y="120" width="55" height="40" as="geometry" />
        </mxCell>
        <!-- Список элементов библиотеки -->
        <mxCell id="library_list" value="" style="rounded=0;whiteSpace=wrap;html=1;fillColor=#ffffff;strokeColor=#f0f0f0;" vertex="1" parent="1">
          <mxGeometry x="0" y="170" width="375" height="447" as="geometry" />
        </mxCell>
        <!-- Элемент 1 (В процессе) -->
        <mxCell id="item_1" value="" style="rounded=1;whiteSpace=wrap;html=1;fillColor=#ffffff;strokeColor=#dddddd;" vertex="1" parent="1">
          <mxGeometry x="20" y="180" width="335" height="100" as="geometry" />
        </mxCell>
        <mxCell id="item_1_image" value="" style="rounded=1;whiteSpace=wrap;html=1;fillColor=#f5f5f5;strokeColor=#666666;" vertex="1" parent="1">
          <mxGeometry x="30" y="190" width="80" height="80" as="geometry" />
        </mxCell>
        <mxCell id="item_1_title" value="Название игры" style="text;html=1;strokeColor=none;fillColor=none;align=left;verticalAlign=top;whiteSpace=wrap;rounded=0;fontStyle=1;fontSize=14;" vertex="1" parent="1">
          <mxGeometry x="120" y="190" width="225" height="20" as="geometry" />
        </mxCell>
        <mxCell id="item_1_info" value="🎮 Игра | В процессе" style="text;html=1;strokeColor=none;fillColor=none;align=left;verticalAlign=top;whiteSpace=wrap;rounded=0;fontSize=12;" vertex="1" parent="1">
          <mxGeometry x="120" y="210" width="225" height="20" as="geometry" />
        </mxCell>
        <mxCell id="item_1_progress" value="Прогресс: 45%" style="text;html=1;strokeColor=none;fillColor=none;align=left;verticalAlign=top;whiteSpace=wrap;rounded=0;fontSize=12;fontColor=#666666;" vertex="1" parent="1">
          <mxGeometry x="120" y="230" width="225" height="20" as="geometry" />
        </mxCell>
        <mxCell id="item_1_progress_bar" value="" style="rounded=1;whiteSpace=wrap;html=1;fillColor=#dae8fc;strokeColor=#6c8ebf;" vertex="1" parent="1">
          <mxGeometry x="120" y="250" width="100" height="10" as="geometry" />
        </mxCell>
        <mxCell id="item_1_progress_bar_bg" value="" style="rounded=1;whiteSpace=wrap;html=1;fillColor=#f5f5f5;strokeColor=#666666;" vertex="1" parent="1">
          <mxGeometry x="220" y="250" width="125" height="10" as="geometry" />
        </mxCell>
        <!-- Элемент 2 (Завершено) -->
        <mxCell id="item_2" value="" style="rounded=1;whiteSpace=wrap;html=1;fillColor=#ffffff;strokeColor=#dddddd;" vertex="1" parent="1">
          <mxGeometry x="20" y="290" width="335" height="100" as="geometry" />
        </mxCell>
        <mxCell id="item_2_image" value="" style="rounded=1;whiteSpace=wrap;html=1;fillColor=#f5f5f5;strokeColor=#666666;" vertex="1" parent="1">
          <mxGeometry x="30" y="300" width="80" height="80" as="geometry" />
        </mxCell>
        <mxCell id="item_2_title" value="Название фильма" style="text;html=1;strokeColor=none;fillColor=none;align=left;verticalAlign=top;whiteSpace=wrap;rounded=0;fontStyle=1;fontSize=14;" vertex="1" parent="1">
          <mxGeometry x="120" y="300" width="225" height="20" as="geometry" />
        </mxCell>
        <mxCell id="item_2_info" value="🎬 Фильм | Завершено" style="text;html=1;strokeColor=none;fillColor=none;align=left;verticalAlign=top;whiteSpace=wrap;rounded=0;fontSize=12;" vertex="1" parent="1">
          <mxGeometry x="120" y="320" width="225" height="20" as="geometry" />
        </mxCell>
        <mxCell id="item_2_rating" value="★★★★☆" style="text;html=1;strokeColor=none;fillColor=none;align=left;verticalAlign=top;whiteSpace=wrap;rounded=0;fontSize=12;fontColor=#666666;" vertex="1" parent="1">
          <mxGeometry x="120" y="340" width="225" height="20" as="geometry" />
        </mxCell>
        <mxCell id="item_2_date" value="Просмотрено: 01.11.2023" style="text;html=1;strokeColor=none;fillColor=none;align=left;verticalAlign=top;whiteSpace=wrap;rounded=0;fontSize=12;fontColor=#666666;" vertex="1" parent="1">
          <mxGeometry x="120" y="360" width="225" height="20" as="geometry" />
        </mxCell>
        <!-- Элемент 3 (Запланировано) -->
        <mxCell id="item_3" value="" style="rounded=1;whiteSpace=wrap;html=1;fillColor=#ffffff;strokeColor=#dddddd;" vertex="1" parent="1">
          <mxGeometry x="20" y="400" width="335" height="100" as="geometry" />
        </mxCell>
        <mxCell id="item_3_image" value="" style="rounded=1;whiteSpace=wrap;html=1;fillColor=#f5f5f5;strokeColor=#666666;" vertex="1" parent="1">
          <mxGeometry x="30" y="410" width="80" height="80" as="geometry" />
        </mxCell>
        <mxCell id="item_3_title" value="Название книги" style="text;html=1;strokeColor=none;fillColor=none;align=left;verticalAlign=top;whiteSpace=wrap;rounded=0;fontStyle=1;fontSize=14;" vertex="1" parent="1">
          <mxGeometry x="120" y="410" width="225" height="20" as="geometry" />
        </mxCell>
        <mxCell id="item_3_info" value="📚 Книга | Запланировано" style="text;html=1;strokeColor=none;fillColor=none;align=left;verticalAlign=top;whiteSpace=wrap;rounded=0;fontSize=12;" vertex="1" parent="1">
          <mxGeometry x="120" y="430" width="225" height="20" as="geometry" />
        </mxCell>
        <mxCell id="item_3_status" value="Добавлено: 31.10.2023" style="text;html=1;strokeColor=none;fillColor=none;align=left;verticalAlign=top;whiteSpace=wrap;rounded=0;fontSize=12;fontColor=#666666;" vertex="1" parent="1">
          <mxGeometry x="120" y="450" width="225" height="20" as="geometry" />
        </mxCell>
        <!-- Нижняя навигационная панель -->
        <mxCell id="bottom_nav" value="" style="rounded=0;whiteSpace=wrap;html=1;fillColor=#f5f5f5;strokeColor=#666666;fontColor=#333333;" vertex="1" parent="1">
          <mxGeometry x="0" y="617" width="375" height="50" as="geometry" />
        </mxCell>
        <mxCell id="nav_home" value="🏠" style="text;html=1;strokeColor=none;fillColor=none;align=center;verticalAlign=middle;whiteSpace=wrap;rounded=0;fontSize=16;" vertex="1" parent="1">
          <mxGeometry x="20" y="627" width="30" height="30" as="geometry" />
        </mxCell>
        <mxCell id="nav_search" value="🔍" style="text;html=1;strokeColor=none;fillColor=none;align=center;verticalAlign=middle;whiteSpace=wrap;rounded=0;fontSize=16;" vertex="1" parent="1">
          <mxGeometry x="100" y="627" width="30" height="30" as="geometry" />
        </mxCell>
        <mxCell id="nav_library" value="📚" style="text;html=1;strokeColor=none;fillColor=none;align=center;verticalAlign=middle;whiteSpace=wrap;rounded=0;fontSize=16;fontStyle=1" vertex="1" parent="1">
          <mxGeometry x="180" y="627" width="30" height="30" as="geometry" />
        </mxCell>
        <mxCell id="nav_achievements" value="🏆" style="text;html=1;strokeColor=none;fillColor=none;align=center;verticalAlign=middle;whiteSpace=wrap;rounded=0;fontSize=16;" vertex="1" parent="1">
          <mxGeometry x="260" y="627" width="30" height="30" as="geometry" />
        </mxCell>
        <mxCell id="nav_profile" value="👤" style="text;html=1;strokeColor=none;fillColor=none;align=center;verticalAlign=middle;whiteSpace=wrap;rounded=0;fontSize=16;" vertex="1" parent="1">
          <mxGeometry x="330" y="627" width="30" height="30" as="geometry" />
        </mxCell>
      </root>
    </mxGraphModel>
  </diagram>
</mxfile>